REM DIRINDEX 1\2,1\4,1\5,1\6,1\7,1\3\8,1\3\9,1\3\10
REM DIRNAME cjc113,folder01,folder02,folder03,folder04,folder05,folder06,folder07,folder08,folder09
TITLE ""
FILE "DB4500_5th_2A_48.mp3" MP3
  TRACK 01 AUDIO
    TITLE "0:"
    INDEX 01 00:00:00
  TRACK 02 AUDIO
    TITLE "8:cjc113_1791"
    INDEX 01 00:00:01
  TRACK 03 AUDIO
    TITLE "0:"
    INDEX 01 00:01:36
  TRACK 04 AUDIO
    TITLE "9:cjc113_1792"
    INDEX 01 00:01:54
  TRACK 05 AUDIO
    TITLE "0:"
    INDEX 01 00:03:10
  TRACK 06 AUDIO
    TITLE "10:cjc113_1793"
    INDEX 01 00:03:29
  TRACK 07 AUDIO
    TITLE "0:"
    INDEX 01 00:09:28
  TRACK 08 AUDIO
    TITLE "8:cjc113_1794"
    INDEX 01 00:09:73
  TRACK 09 AUDIO
    TITLE "0:"
    INDEX 01 00:11:09
  TRACK 10 AUDIO
    TITLE "9:cjc113_1795"
    INDEX 01 00:11:27
  TRACK 11 AUDIO
    TITLE "0:"
    INDEX 01 00:12:48
  TRACK 12 AUDIO
    TITLE "10:cjc113_1796"
    INDEX 01 00:12:69
  TRACK 13 AUDIO
    TITLE "0:"
    INDEX 01 00:16:18
  TRACK 14 AUDIO
    TITLE "8:cjc113_1797"
    INDEX 01 00:16:63
  TRACK 15 AUDIO
    TITLE "0:"
    INDEX 01 00:17:72
  TRACK 16 AUDIO
    TITLE "9:cjc113_1798"
    INDEX 01 00:18:15
  TRACK 17 AUDIO
    TITLE "0:"
    INDEX 01 00:19:46
  TRACK 18 AUDIO
    TITLE "10:cjc113_1799"
    INDEX 01 00:19:65
  TRACK 19 AUDIO
    TITLE "0:"
    INDEX 01 00:24:39
  TRACK 20 AUDIO
    TITLE "8:cjc113_1800"
    INDEX 01 00:25:09
  TRACK 21 AUDIO
    TITLE "0:"
    INDEX 01 00:26:24
  TRACK 22 AUDIO
    TITLE "9:cjc113_1801"
    INDEX 01 00:26:44
  TRACK 23 AUDIO
    TITLE "0:"
    INDEX 01 00:28:00
  TRACK 24 AUDIO
    TITLE "10:cjc113_1802"
    INDEX 01 00:28:17
  TRACK 25 AUDIO
    TITLE "0:"
    INDEX 01 00:30:67
  TRACK 26 AUDIO
    TITLE "8:cjc113_1803"
    INDEX 01 00:31:31
  TRACK 27 AUDIO
    TITLE "0:"
    INDEX 01 00:32:54
  TRACK 28 AUDIO
    TITLE "9:cjc113_1804"
    INDEX 01 00:32:74
  TRACK 29 AUDIO
    TITLE "0:"
    INDEX 01 00:34:30
  TRACK 30 AUDIO
    TITLE "10:cjc113_1805"
    INDEX 01 00:34:51
  TRACK 31 AUDIO
    TITLE "0:"
    INDEX 01 00:39:33
  TRACK 32 AUDIO
    TITLE "8:cjc113_1806"
    INDEX 01 00:40:01
  TRACK 33 AUDIO
    TITLE "0:"
    INDEX 01 00:41:06
  TRACK 34 AUDIO
    TITLE "9:cjc113_1807"
    INDEX 01 00:41:28
  TRACK 35 AUDIO
    TITLE "0:"
    INDEX 01 00:43:33
  TRACK 36 AUDIO
    TITLE "10:cjc113_1808"
    INDEX 01 00:43:52
  TRACK 37 AUDIO
    TITLE "0:"
    INDEX 01 00:47:72
  TRACK 38 AUDIO
    TITLE "8:cjc113_1809"
    INDEX 01 00:48:42
  TRACK 39 AUDIO
    TITLE "0:"
    INDEX 01 00:49:63
  TRACK 40 AUDIO
    TITLE "9:cjc113_1810"
    INDEX 01 00:50:07
  TRACK 41 AUDIO
    TITLE "0:"
    INDEX 01 00:51:69
  TRACK 42 AUDIO
    TITLE "10:cjc113_1811"
    INDEX 01 00:52:12
  TRACK 43 AUDIO
    TITLE "0:"
    INDEX 01 00:56:39
  TRACK 44 AUDIO
    TITLE "8:cjc113_1812"
    INDEX 01 00:57:05
  TRACK 45 AUDIO
    TITLE "0:"
    INDEX 01 00:58:15
  TRACK 46 AUDIO
    TITLE "9:cjc113_1813"
    INDEX 01 00:58:30
  TRACK 47 AUDIO
    TITLE "0:"
    INDEX 01 01:00:15
  TRACK 48 AUDIO
    TITLE "10:cjc113_1814"
    INDEX 01 01:00:37
  TRACK 49 AUDIO
    TITLE "0:"
    INDEX 01 01:04:15
  TRACK 50 AUDIO
    TITLE "8:cjc113_1815"
    INDEX 01 01:04:56
  TRACK 51 AUDIO
    TITLE "0:"
    INDEX 01 01:06:06
  TRACK 52 AUDIO
    TITLE "9:cjc113_1816"
    INDEX 01 01:06:24
  TRACK 53 AUDIO
    TITLE "0:"
    INDEX 01 01:07:63
  TRACK 54 AUDIO
    TITLE "10:cjc113_1817"
    INDEX 01 01:07:74
  TRACK 55 AUDIO
    TITLE "0:"
    INDEX 01 01:12:73
  TRACK 56 AUDIO
    TITLE "8:cjc113_1818"
    INDEX 01 01:13:42
  TRACK 57 AUDIO
    TITLE "0:"
    INDEX 01 01:15:03
  TRACK 58 AUDIO
    TITLE "9:cjc113_1819"
    INDEX 01 01:15:23
  TRACK 59 AUDIO
    TITLE "0:"
    INDEX 01 01:16:61
  TRACK 60 AUDIO
    TITLE "10:cjc113_1820"
    INDEX 01 01:17:08
  TRACK 61 AUDIO
    TITLE "0:"
    INDEX 01 01:21:33
  TRACK 62 AUDIO
    TITLE "8:cjc113_1821"
    INDEX 01 01:22:03
  TRACK 63 AUDIO
    TITLE "0:"
    INDEX 01 01:23:30
  TRACK 64 AUDIO
    TITLE "9:cjc113_1822"
    INDEX 01 01:23:52
  TRACK 65 AUDIO
    TITLE "0:"
    INDEX 01 01:25:04
  TRACK 66 AUDIO
    TITLE "10:cjc113_1823"
    INDEX 01 01:25:25
  TRACK 67 AUDIO
    TITLE "0:"
    INDEX 01 01:29:33
